<?xml version="1.0" standalone="no"?>
<!DOCTYPE svg PUBLIC "-//W3C//DTD SVG 20010904//EN"
 "http://www.w3.org/TR/2001/REC-SVG-20010904/DTD/svg10.dtd">
<svg version="1.0" xmlns="http://www.w3.org/2000/svg"
 width="412.000000pt" height="412.000000pt" viewBox="0 0 412.000000 412.000000"
 preserveAspectRatio="xMidYMid meet">
<metadata>
Created by potrace 1.11, written by Peter Selinger 2001-2013
</metadata>
<g transform="translate(0.000000,412.000000) scale(0.100000,-0.100000)"
fill="#000000" stroke="none">
<path d="M2030 4117 c-3 -3 -34 -7 -70 -11 -36 -3 -74 -8 -85 -10 -11 -2 -54
-9 -95 -16 -321 -51 -652 -191 -918 -387 -109 -80 -119 -89 -232 -203 -284
-284 -462 -642 -514 -1032 -13 -96 -15 -518 -3 -588 2 -14 7 -54 11 -90 32
-275 144 -641 256 -830 17 -28 30 -53 30 -56 0 -3 23 -40 51 -82 178 -266 400
-463 679 -602 80 -40 201 -89 260 -106 59 -17 210 -55 230 -59 250 -47 591
-53 815 -15 33 6 76 13 95 16 19 3 73 15 120 26 489 116 884 349 1162 686 65
79 173 246 190 293 18 51 35 41 -375 193 -98 37 -207 80 -243 96 -73 33 -71
20 -14 145 51 112 58 128 69 166 24 77 30 119 37 264 l6 120 39 40 c61 64 83
125 83 225 0 70 -5 94 -26 140 -48 102 -110 150 -195 150 l-52 0 -55 113 c-31
63 -56 124 -56 136 0 24 31 58 115 127 327 269 435 365 435 386 0 49 -183 243
-340 362 -267 201 -602 340 -920 381 -25 3 -61 8 -80 11 -46 7 -404 16 -410
11z m-547 -667 c9 -30 25 -62 35 -72 16 -16 19 -16 61 12 105 71 232 11 205
-97 -12 -48 -47 -72 -117 -81 -65 -8 -75 -23 -23 -35 39 -10 99 1 286 53 107
30 128 32 305 35 138 2 209 -1 259 -12 215 -45 444 -180 560 -332 72 -94 157
-244 213 -376 52 -122 106 -282 117 -345 3 -19 10 -53 14 -75 4 -22 7 -107 6
-190 -1 -120 -6 -166 -23 -230 -61 -227 -233 -436 -486 -592 -193 -119 -321
-172 -521 -213 -312 -65 -567 -39 -784 78 -89 48 -250 202 -321 307 -110 161
-235 478 -274 695 -15 80 -14 315 1 378 66 283 231 505 527 709 l47 32 -24 24
c-15 15 -28 46 -36 83 -7 33 -22 70 -34 84 -62 68 -87 136 -72 195 5 21 12 26
34 23 23 -3 30 -11 45 -58z m1985 -984 c42 -48 66 -135 58 -211 -6 -60 -27
-98 -45 -80 -5 6 -19 46 -30 90 -11 44 -32 113 -46 154 -14 41 -25 76 -25 78
0 2 13 3 29 3 20 0 38 -10 59 -34z m-2399 -983 c17 -38 52 -108 77 -156 55
-106 50 -123 -25 -81 -77 41 -129 118 -138 205 -6 52 14 99 41 99 7 0 27 -30
45 -67z"/>
<path d="M1624 3323 c-16 -16 -15 -18 12 -29 40 -16 73 -1 74 34 0 18 -66 15
-86 -5z"/>
<path d="M2474 2716 c-59 -27 -117 -90 -150 -160 -29 -63 -30 -82 -3 -96 30
-17 45 -7 73 47 63 124 141 159 272 123 87 -23 108 -25 122 -7 36 42 -76 105
-198 112 -54 3 -77 -1 -116 -19z"/>
<path d="M1507 2220 c-27 -10 -63 -30 -80 -43 -34 -25 -87 -95 -91 -119 -1 -7
-5 -22 -9 -33 -11 -36 -17 -98 -12 -116 8 -23 32 -31 55 -19 12 6 21 26 26 55
3 25 10 48 15 51 5 3 9 13 9 22 0 28 48 90 83 109 24 13 57 17 128 17 86 0 98
3 109 20 26 41 -51 75 -165 74 -11 0 -42 -8 -68 -18z"/>
<path d="M2715 1881 c-121 -60 -251 -124 -290 -141 -38 -18 -92 -42 -120 -55
-99 -45 -256 -111 -415 -175 -58 -24 -119 -53 -137 -66 -58 -44 -67 -137 -21
-212 55 -89 322 -137 539 -96 417 77 770 345 850 644 29 110 -44 210 -153 210
-22 0 -108 -37 -253 -109z"/>
</g>
</svg>
